<!DOCTYPE svg PUBLIC "-//W3C//DTD SVG 1.1//EN" "http://www.w3.org/Graphics/SVG/1.1/DTD/svg11.dtd">
<!-- Uploaded to: SVG Repo, www.svgrepo.com, Transformed by: SVG Repo Mixer Tools -->
<svg fill="#3369d7" height="800px" width="800px" version="1.1" id="_x31_" xmlns="http://www.w3.org/2000/svg" xmlns:xlink="http://www.w3.org/1999/xlink" viewBox="-12.8 -12.8 153.60 153.60" xml:space="preserve" stroke="#3369d7" transform="rotate(0)">
<g id="SVGRepo_bgCarrier" stroke-width="0" transform="translate(0,0), scale(1)">
<path transform="translate(-12.8, -12.8), scale(4.8)" d="M16,30.246265874554712C18.298812080284048,30.05220902659519,19.07556054039366,26.823554311745117,21.10058182313267,25.718346709005296C23.078766779393565,24.638701239636248,26.01658810205941,25.62932951162234,27.525863013927264,23.9557288121984C29.000811772644095,22.320191605031802,28.568254011892,19.718534502464102,28.496362689287658,17.51733314079797C28.43123485756612,15.523219433128494,27.524056474974074,13.735144371570781,27.128191272216675,11.779633733699974C26.65285523595885,9.431549918828347,27.743283417201468,6.356773132372599,25.921997203624702,4.800380355062641C24.089056590057034,3.2340282293347857,21.204516474239423,4.754250639619521,18.795364832792135,4.658759052818196C16.871322950303394,4.582495770229358,15.039877962262178,4.274018004466063,13.11441613105003,4.292726034485275C10.723367679565381,4.315957762833588,7.846450674181895,3.190655939826942,6.0621415037680695,4.782476656781686C4.275905982898719,6.376015912549134,5.45100913572311,9.445934508797258,4.7668042106172095,11.739810773147212C4.1423994969275295,13.8331999019368,2.1178862657920283,15.491276843325458,2.2170618175374486,17.67355168874441C2.3167460856060247,19.867020410234012,3.811579721758511,21.7705363259699,5.296181428370771,23.38831250275628C6.68279150890512,24.899306828567184,8.699720876557718,25.513059236874547,10.426503015741705,26.619411265781892C12.320363096068611,27.83281039401613,13.758739783049245,30.435464416222718,16,30.246265874554712" fill="#7ed0ec" strokewidth="0"/>
</g>
<g id="SVGRepo_tracerCarrier" stroke-linecap="round" stroke-linejoin="round"/>
<g id="SVGRepo_iconCarrier"> <g> <circle cx="24.3" cy="24.4" r="8.5"/> <path d="M54,36.7l-14.5,5.3l-14-6.5C24.7,35.2,23.9,35,23,35c-0.8,0-3.5,0-4.2,0c-3.5,0-6.3,2.9-6.4,6.4v26.4 c0,1.8,0.7,3.4,1.9,4.6c0,0,2.3,43.1,2.3,43.3c0,2.9,2.3,5.2,5.2,5.2c2.7,0,5-2.1,5.2-4.8c0,0,0,0,0,0l0-0.3c0,0,0-0.1,0-0.1 c0,0,0,0,0,0l1.4-44.2c0.7-1,1.1-2.3,1.1-3.5V45.5l8.4,3.9c0.9,0.5,2,0.5,2.9,0.2l16-5.8c2-0.8,2.9-2.8,2.3-4.8 C58.1,37,56,36,54,36.7z"/> <path d="M54.2,6.3c-7.1,0-12.9,3-12.9,6.7c0,1.5,0.9,2.9,2.5,4L40,20.6l8.5-1.6c1.7,0.4,3.6,0.7,5.7,0.7c7.1,0,12.9-3,12.9-6.7 C67,9.3,61.3,6.3,54.2,6.3z"/> <circle cx="103.4" cy="24.4" r="8.5"/> <path d="M108.8,35c-0.8,0-3.5,0-4.2,0c-1,0-2.3,0.4-3,1l-12.5,12l-14.5-5.3c-2-0.8-4.1,0.3-5,2.3c-0.7,2,0.3,4.1,2.3,4.8l16,5.8 c0.9,0.3,2,0.3,2.9-0.2l7.4-5.7l0,18.2c0.1,1.3,0.5,2.6,1.1,3.5l1.4,44.2c0,0,0,0,0,0c0,0,0,0.1,0,0.1l0,0.3c0,0,0,0,0,0 c0.2,2.7,2.4,4.8,5.2,4.8c2.9,0,5.2-2.3,5.2-5.2c0-0.1,2.3-43.3,2.3-43.3c1.2-1.2,1.9-2.8,1.9-4.6V41.4 C115.1,37.9,112.3,35,108.8,35z"/> </g> </g>
</svg>