{
  "accessors": [
    {
      "bufferView": 2,
      "componentType": 5126,
      "count": 384,
      "max": [
        1.139206051826477,
        0.45956501364707947,
        0.7220550179481506
      ],
      "min": [
        1.133234977722168,
        0.45359399914741516,
        0.48089200258255005
      ],
      "type": "VEC3"
    },
    {
      "bufferView": 2,
      "byteOffset": 4608,
      "componentType": 5126,
      "count": 384,
      "max": [
        0.999823272228241,
        0.9998194575309753,
        1.0
      ],
      "min": [
        -0.9998118281364441,
        -0.9998118281364441,
        -1.0
      ],
      "type": "VEC3"
    },
    {
      "bufferView": 1,
      "componentType": 5126,
      "count": 384,
      "max": [
        0.7013329863548279,
        0.6993880271911621
      ],
      "min": [
        0.16684700548648834,
        0.467180997133255
      ],
      "type": "VEC2"
    },
    {
      "bufferView": 0,
      "componentType": 5125,
      "count": 744,
      "type": "SCALAR"
    },
    {
      "bufferView": 2,
      "byteOffset": 9216,
      "componentType": 5126,
      "count": 256,
      "max": [
        1.01521897315979,
        0.16528299450874329,
        1.5583330392837524
      ],
      "min": [
        0.9440739750862122,
        0.05178700014948845,
        1.2275559902191162
      ],
      "type": "VEC3"
    },
    {
      "bufferView": 2,
      "byteOffset": 12288,
      "componentType": 5126,
      "count": 256,
      "max": [
        0.9995376467704773,
        0.9997541308403015,
        0.5003791451454163
      ],
      "min": [
        -0.9995333552360535,
        -0.9997535347938538,
        -0.8036172389984131
      ],
      "type": "VEC3"
    },
    {
      "bufferView": 1,
      "byteOffset": 3072,
      "componentType": 5126,
      "count": 256,
      "max": [
        0.0,
        0.0
      ],
      "min": [
        0.0,
        0.0
      ],
      "type": "VEC2"
    },
    {
      "bufferView": 0,
      "byteOffset": 2976,
      "componentType": 5125,
      "count": 384,
      "type": "SCALAR"
    },
    {
      "bufferView": 2,
      "byteOffset": 15360,
      "componentType": 5126,
      "count": 1567,
      "max": [
        1.530187964439392,
        0.6893849968910217,
        1.2894049882888794
      ],
      "min": [
        0.7167400121688843,
        -0.12501299381256104,
        0.08405599743127823
      ],
      "type": "VEC3"
    },
    {
      "bufferView": 2,
      "byteOffset": 34164,
      "componentType": 5126,
      "count": 1567,
      "max": [
        0.9931082725524902,
        0.9931082725524902,
        1.0
      ],
      "min": [
        -0.9931082725524902,
        -0.9930965304374695,
        -1.0
      ],
      "type": "VEC3"
    },
    {
      "bufferView": 1,
      "byteOffset": 5120,
      "componentType": 5126,
      "count": 1567,
      "max": [
        1.0,
        0.9654290080070496
      ],
      "min": [
        0.0,
        0.0
      ],
      "type": "VEC2"
    },
    {
      "bufferView": 0,
      "byteOffset": 4512,
      "componentType": 5125,
      "count": 2676,
      "type": "SCALAR"
    },
    {
      "bufferView": 2,
      "byteOffset": 52968,
      "componentType": 5126,
      "count": 6568,
      "max": [
        1.0158590078353882,
        0.16669300198554993,
        1.5602610111236572
      ],
      "min": [
        0.9412530064582825,
        0.049897998571395874,
        1.1743589639663696
      ],
      "type": "VEC3"
    },
    {
      "bufferView": 2,
      "byteOffset": 131784,
      "componentType": 5126,
      "count": 6568,
      "max": [
        0.9995419383049011,
        0.9997535347938538,
        0.9997459053993225
      ],
      "min": [
        -0.9995397925376892,
        -0.9997541308403015,
        -0.9997459053993225
      ],
      "type": "VEC3"
    },
    {
      "bufferView": 1,
      "byteOffset": 17656,
      "componentType": 5126,
      "count": 6568,
      "max": [
        0.0,
        0.0
      ],
      "min": [
        0.0,
        0.0
      ],
      "type": "VEC2"
    },
    {
      "bufferView": 0,
      "byteOffset": 15216,
      "componentType": 5125,
      "count": 10266,
      "type": "SCALAR"
    },
    {
      "bufferView": 2,
      "byteOffset": 210600,
      "componentType": 5126,
      "count": 32,
      "max": [
        1.0148379802703857,
        0.16579200327396393,
        1.5594370365142822
      ],
      "min": [
        1.0101310014724731,
        0.16177299618721008,
        1.556123971939087
      ],
      "type": "VEC3"
    },
    {
      "bufferView": 2,
      "byteOffset": 210984,
      "componentType": 5126,
      "count": 32,
      "max": [
        0.3166947662830353,
        0.5874902606010437,
        0.7446876764297485
      ],
      "min": [
        0.3166947662830353,
        0.5874902606010437,
        0.7446876764297485
      ],
      "type": "VEC3"
    },
    {
      "bufferView": 1,
      "byteOffset": 70200,
      "componentType": 5126,
      "count": 32,
      "max": [
        0.0,
        0.0
      ],
      "min": [
        0.0,
        0.0
      ],
      "type": "VEC2"
    },
    {
      "bufferView": 0,
      "byteOffset": 56280,
      "componentType": 5125,
      "count": 90,
      "type": "SCALAR"
    }
  ],
  "asset": {
    "extras": {
      "author": "alexsatchell (https://sketchfab.com/alexsatchell)",
      "license": "CC-BY-4.0 (http://creativecommons.org/licenses/by/4.0/)",
      "source": "https://sketchfab.com/3d-models/debate-podium-7f6a04fb0a634814a5eaf1a14be44c7f",
      "title": "Debate Podium"
    },
    "generator": "Sketchfab-15.43.0",
    "version": "2.0"
  },
  "bufferViews": [
    {
      "buffer": 0,
      "byteLength": 56640,
      "name": "floatBufferViews",
      "target": 34963
    },
    {
      "buffer": 0,
      "byteLength": 70456,
      "byteOffset": 56640,
      "byteStride": 8,
      "name": "floatBufferViews",
      "target": 34962
    },
    {
      "buffer": 0,
      "byteLength": 211368,
      "byteOffset": 127096,
      "byteStride": 12,
      "name": "floatBufferViews",
      "target": 34962
    }
  ],
  "buffers": [
    {
      "byteLength": 338464,
      "uri": "scene.bin"
    }
  ],
  "images": [
    {
      "uri": "textures/Gold_baseColor.jpeg"
    },
    {
      "uri": "textures/Material.001_baseColor.jpeg"
    }
  ],
  "materials": [
    {
      "doubleSided": true,
      "name": "Gold",
      "pbrMetallicRoughness": {
        "baseColorTexture": {
          "index": 0
        },
        "metallicFactor": 0.0,
        "roughnessFactor": 0.6
      }
    },
    {
      "doubleSided": true,
      "name": "Grey",
      "pbrMetallicRoughness": {
        "metallicFactor": 0.0,
        "roughnessFactor": 0.6
      }
    },
    {
      "doubleSided": true,
      "name": "Material.001",
      "pbrMetallicRoughness": {
        "baseColorTexture": {
          "index": 1
        },
        "metallicFactor": 0.0,
        "roughnessFactor": 0.6
      }
    },
    {
      "doubleSided": true,
      "name": "Microphone",
      "pbrMetallicRoughness": {
        "baseColorFactor": [
          0.0,
          0.0,
          0.0,
          1.0
        ],
        "metallicFactor": 0.0,
        "roughnessFactor": 0.6
      }
    },
    {
      "doubleSided": true,
      "name": "White",
      "pbrMetallicRoughness": {
        "metallicFactor": 0.0,
        "roughnessFactor": 0.6
      }
    }
  ],
  "meshes": [
    {
      "name": "Object_0",
      "primitives": [
        {
          "attributes": {
            "NORMAL": 1,
            "POSITION": 0,
            "TEXCOORD_0": 2
          },
          "indices": 3,
          "material": 0,
          "mode": 4
        }
      ]
    },
    {
      "name": "Object_1",
      "primitives": [
        {
          "attributes": {
            "NORMAL": 5,
            "POSITION": 4,
            "TEXCOORD_0": 6
          },
          "indices": 7,
          "material": 1,
          "mode": 4
        }
      ]
    },
    {
      "name": "Object_2",
      "primitives": [
        {
          "attributes": {
            "NORMAL": 9,
            "POSITION": 8,
            "TEXCOORD_0": 10
          },
          "indices": 11,
          "material": 2,
          "mode": 4
        }
      ]
    },
    {
      "name": "Object_3",
      "primitives": [
        {
          "attributes": {
            "NORMAL": 13,
            "POSITION": 12,
            "TEXCOORD_0": 14
          },
          "indices": 15,
          "material": 3,
          "mode": 4
        }
      ]
    },
    {
      "name": "Object_4",
      "primitives": [
        {
          "attributes": {
            "NORMAL": 17,
            "POSITION": 16,
            "TEXCOORD_0": 18
          },
          "indices": 19,
          "material": 4,
          "mode": 4
        }
      ]
    }
  ],
  "nodes": [
    {
      "children": [
        1
      ],
      "matrix": [
        1.0,
        0.0,
        0.0,
        0.0,
        0.0,
        2.220446049250313e-16,
        -1.0,
        0.0,
        0.0,
        1.0,
        2.220446049250313e-16,
        0.0,
        0.0,
        0.0,
        0.0,
        1.0
      ],
      "name": "Sketchfab_model"
    },
    {
      "children": [
        2,
        3,
        4,
        5,
        6
      ],
      "name": "5f995681f5c3426da2f2475c025b8e2e.obj.cleaner.materialmerger.gles"
    },
    {
      "mesh": 0,
      "name": "Object_2"
    },
    {
      "mesh": 1,
      "name": "Object_3"
    },
    {
      "mesh": 2,
      "name": "Object_4"
    },
    {
      "mesh": 3,
      "name": "Object_5"
    },
    {
      "mesh": 4,
      "name": "Object_6"
    }
  ],
  "samplers": [
    {
      "magFilter": 9729,
      "minFilter": 9987,
      "wrapS": 10497,
      "wrapT": 10497
    }
  ],
  "scene": 0,
  "scenes": [
    {
      "name": "Sketchfab_Scene",
      "nodes": [
        0
      ]
    }
  ],
  "textures": [
    {
      "sampler": 0,
      "source": 0
    },
    {
      "sampler": 0,
      "source": 1
    }
  ]
}
